<svg xmlns="http://www.w3.org/2000/svg" width="166.5" height="28.794" viewBox="0 0 166.5 28.794"><defs><style>.a{fill:#262626;}.b{fill:#ff9000;}</style></defs><g transform="translate(0 0)"><path class="a" d="M1072.538,114.6v-1.679a4.824,4.824,0,0,1-1.881,1.477,6.178,6.178,0,0,1-2.285.389,6.273,6.273,0,0,1-2.192-.373,4.525,4.525,0,0,1-1.664-1.026,4.668,4.668,0,0,1-.948-1.368,7.813,7.813,0,0,1-.544-1.664,11.633,11.633,0,0,1-.233-1.819q-.047-.932-.047-1.835t.047-1.835a11.276,11.276,0,0,1,.233-1.8,7.868,7.868,0,0,1,.544-1.648,4.67,4.67,0,0,1,.948-1.368,4.549,4.549,0,0,1,1.648-1.026,6.149,6.149,0,0,1,2.177-.373,6.433,6.433,0,0,1,2.27.373,4.614,4.614,0,0,1,1.866,1.4v-7.96h3.172V114.6Zm-.171-9.9a5.234,5.234,0,0,0-.451-1.664,2.709,2.709,0,0,0-.995-1.135,3.726,3.726,0,0,0-3.436,0,2.857,2.857,0,0,0-1,1.135,4.955,4.955,0,0,0-.467,1.664,18.608,18.608,0,0,0,0,4.011,5.112,5.112,0,0,0,.467,1.679,2.832,2.832,0,0,0,1,1.151,3.725,3.725,0,0,0,3.436,0,2.689,2.689,0,0,0,.995-1.151,5.4,5.4,0,0,0,.451-1.679,18.525,18.525,0,0,0,0-4.011Z" transform="translate(-1062.743 -92.37)"/><path class="a" d="M1143.49,129.589a4.766,4.766,0,0,0,1.026,3.234A3.74,3.74,0,0,0,1147.5,134a5.1,5.1,0,0,0,2.161-.389,6.065,6.065,0,0,0,1.663-1.228l2.021,1.9a11.179,11.179,0,0,1-1.228,1.073,6.807,6.807,0,0,1-1.306.762,6.877,6.877,0,0,1-1.524.466,10.034,10.034,0,0,1-1.85.156,8.956,8.956,0,0,1-2.784-.42,5.616,5.616,0,0,1-2.248-1.368,6.662,6.662,0,0,1-1.523-2.5,11.159,11.159,0,0,1-.565-3.794,8.767,8.767,0,0,1,1.835-5.955,6.162,6.162,0,0,1,4.882-2.1,6.831,6.831,0,0,1,2.83.559,5.944,5.944,0,0,1,2.1,1.555,6.845,6.845,0,0,1,1.306,2.394,10,10,0,0,1,.451,3.079v1.4Zm6.981-3.374a3.89,3.89,0,0,0-.326-.979,3.171,3.171,0,0,0-1.182-1.446,3.377,3.377,0,0,0-1.928-.544,3.448,3.448,0,0,0-1.943.544,3.133,3.133,0,0,0-1.2,1.446,3.4,3.4,0,0,0-.311.979q-.063.451-.094,1.166h7.09A9.6,9.6,0,0,0,1150.47,126.215Z" transform="translate(-1123.259 -114.321)"/><path class="a" d="M1227.071,133.911a4.631,4.631,0,0,1-1.368,1.57,6.008,6.008,0,0,1-2.083.948,10.517,10.517,0,0,1-2.612.311,13.52,13.52,0,0,1-3.576-.451,6.971,6.971,0,0,1-3.047-1.819l2.083-2.083a4.712,4.712,0,0,0,2.161,1.322,9.013,9.013,0,0,0,2.379.326,5.189,5.189,0,0,0,2.457-.528,1.9,1.9,0,0,0,.513-2.939,2.569,2.569,0,0,0-1.632-.575l-2.519-.218a5.93,5.93,0,0,1-3.452-1.228,3.893,3.893,0,0,1-1.212-3.125,4.3,4.3,0,0,1,1.741-3.56,6.034,6.034,0,0,1,1.881-.933,7.927,7.927,0,0,1,2.316-.326,12.475,12.475,0,0,1,3.265.4,6.325,6.325,0,0,1,2.581,1.368l-1.99,2.021a4.478,4.478,0,0,0-1.757-.886,8.413,8.413,0,0,0-2.131-.264,3.444,3.444,0,0,0-2.145.56,1.768,1.768,0,0,0-.715,1.461,1.686,1.686,0,0,0,.451,1.2,2.731,2.731,0,0,0,1.726.606l2.488.217a5.881,5.881,0,0,1,3.467,1.259,4.006,4.006,0,0,1,1.229,3.188A4.56,4.56,0,0,1,1227.071,133.911Z" transform="translate(-1181.038 -114.321)"/><path class="a" d="M1290.982,95.4V92.039h3.358V95.4Zm.093,18.875V98.507h3.172v15.765Z" transform="translate(-1240.792 -92.039)"/><path class="a" d="M1337.317,139.135a5.961,5.961,0,0,1-3.452,3.483,7.579,7.579,0,0,1-2.829.5,8.854,8.854,0,0,1-3.063-.466,7.657,7.657,0,0,1-2.5-1.617l2.021-2.021a5.523,5.523,0,0,0,1.492,1.057,4.656,4.656,0,0,0,1.928.342,4,4,0,0,0,1.695-.326,3.178,3.178,0,0,0,1.151-.883,3.544,3.544,0,0,0,.653-1.27,5.554,5.554,0,0,0,.2-1.519V134.4a4.756,4.756,0,0,1-1.866,1.4,6.079,6.079,0,0,1-2.208.384,5.9,5.9,0,0,1-2.146-.373,4.6,4.6,0,0,1-1.617-1.026,5.215,5.215,0,0,1-1.461-2.768,21.441,21.441,0,0,1,0-7.276,5.219,5.219,0,0,1,1.461-2.767,5.128,5.128,0,0,1,3.794-1.368,6.084,6.084,0,0,1,2.255.389,4.839,4.839,0,0,1,1.881,1.477v-1.679h3.078v15.672A7.4,7.4,0,0,1,1337.317,139.135Zm-2.8-12.568a4.734,4.734,0,0,0-.435-1.591,2.785,2.785,0,0,0-.979-1.123,3.032,3.032,0,0,0-1.695-.421,3.094,3.094,0,0,0-1.726.421,2.668,2.668,0,0,0-.964,1.123,5.249,5.249,0,0,0-.435,1.591,15.365,15.365,0,0,0,0,3.65,5.253,5.253,0,0,0,.435,1.591,2.667,2.667,0,0,0,.964,1.123,3.094,3.094,0,0,0,1.726.421,3.031,3.031,0,0,0,1.695-.421,2.783,2.783,0,0,0,.979-1.123,4.737,4.737,0,0,0,.435-1.591,17.879,17.879,0,0,0,0-3.65Z" transform="translate(-1267.332 -114.321)"/><path class="a" d="M1414.8,136.554v-9.609a3.467,3.467,0,0,0-.918-2.674,3.217,3.217,0,0,0-2.254-.84,3.145,3.145,0,0,0-3.265,3.514v9.609h-3.172V120.788h3.11v1.586a5.012,5.012,0,0,1,1.912-1.337,6.181,6.181,0,0,1,2.286-.435,6.114,6.114,0,0,1,2.192.373,5,5,0,0,1,1.695,1.057,4.858,4.858,0,0,1,1.244,2.006,8.219,8.219,0,0,1,.342,2.441v10.075Z" transform="translate(-1329.889 -114.321)"/><path class="a" d="M1497.719,108.539a11.691,11.691,0,0,1-.233,1.819,7.84,7.84,0,0,1-.544,1.664,4.7,4.7,0,0,1-.948,1.368,4.532,4.532,0,0,1-1.664,1.026,6.281,6.281,0,0,1-2.193.373,6.18,6.18,0,0,1-2.286-.389,4.817,4.817,0,0,1-1.881-1.477V114.6h-3.11V92.463h3.172v7.96a4.609,4.609,0,0,1,1.866-1.4,6.429,6.429,0,0,1,2.27-.373,6.15,6.15,0,0,1,2.177.373,4.55,4.55,0,0,1,1.648,1.026,4.7,4.7,0,0,1,.948,1.368,7.9,7.9,0,0,1,.544,1.648,11.332,11.332,0,0,1,.233,1.8q.047.933.047,1.835T1497.719,108.539Zm-3.234-3.84a5.237,5.237,0,0,0-.451-1.664,2.713,2.713,0,0,0-.995-1.135,3.727,3.727,0,0,0-3.436,0,2.859,2.859,0,0,0-1,1.135,4.952,4.952,0,0,0-.466,1.664,18.525,18.525,0,0,0,0,4.011,5.109,5.109,0,0,0,.466,1.679,2.834,2.834,0,0,0,1,1.151,3.725,3.725,0,0,0,3.436,0,2.692,2.692,0,0,0,.995-1.151,5.406,5.406,0,0,0,.451-1.679,18.546,18.546,0,0,0,0-4.011Z" transform="translate(-1392.037 -92.37)"/><path class="a" d="M1566.9,114.6a4.853,4.853,0,0,1-1.943-.357,3.816,3.816,0,0,1-1.353-.949,3.707,3.707,0,0,1-.778-1.384,5.516,5.516,0,0,1-.248-1.664V92.463h3.171v17.6a2.152,2.152,0,0,0,.373,1.368,1.629,1.629,0,0,0,1.337.467h1.4V114.6Z" transform="translate(-1452.663 -92.37)"/><path class="a" d="M1615.262,137.215V135.63a5,5,0,0,1-1.912,1.337,6.406,6.406,0,0,1-4.478.062,4.984,4.984,0,0,1-1.694-1.057,4.85,4.85,0,0,1-1.244-2.006,8.21,8.21,0,0,1-.342-2.441V121.45h3.172v9.609a3.464,3.464,0,0,0,.917,2.674,3.215,3.215,0,0,0,2.254.84,3.949,3.949,0,0,0,1.26-.2,2.616,2.616,0,0,0,1.042-.638,3.2,3.2,0,0,0,.7-1.1,4.265,4.265,0,0,0,.264-1.57V121.45h3.172v15.765Z" transform="translate(-1486.219 -114.982)"/><path class="a" d="M1685.771,129.589a4.765,4.765,0,0,0,1.026,3.234,3.739,3.739,0,0,0,2.985,1.182,5.1,5.1,0,0,0,2.161-.389,6.06,6.06,0,0,0,1.664-1.228l2.021,1.9a11.2,11.2,0,0,1-1.228,1.073,6.736,6.736,0,0,1-2.83,1.228,10.032,10.032,0,0,1-1.85.156,8.958,8.958,0,0,1-2.784-.42,5.619,5.619,0,0,1-2.249-1.368,6.663,6.663,0,0,1-1.523-2.5,11.153,11.153,0,0,1-.565-3.794,8.766,8.766,0,0,1,1.835-5.955,6.161,6.161,0,0,1,4.882-2.1,6.831,6.831,0,0,1,2.83.559,5.95,5.95,0,0,1,2.1,1.555,6.849,6.849,0,0,1,1.306,2.394,10.009,10.009,0,0,1,.451,3.079v1.4Zm6.981-3.374a3.9,3.9,0,0,0-.326-.979,3.17,3.17,0,0,0-1.182-1.446,3.376,3.376,0,0,0-1.928-.544,3.449,3.449,0,0,0-1.944.544,3.132,3.132,0,0,0-1.2,1.446,3.391,3.391,0,0,0-.311.979q-.063.451-.094,1.166h7.09A9.593,9.593,0,0,0,1692.752,126.215Z" transform="translate(-1546.293 -114.321)"/></g><path class="b" d="M1772.25,97.412h-5.373V92.039h-2.687v5.373h-5.373V100.1h5.373v5.373h2.687V100.1h5.373Z" transform="translate(-1605.75 -92.039)"/></svg>
